<?xml version="1.0" encoding="UTF-8"?>
<svg id="Layer_2" data-name="Layer 2" xmlns="http://www.w3.org/2000/svg" viewBox="0 0 3856.02 4832">
  <defs>
    <style>
      .cls-1 {
        fill: #fe0606;
      }

      .cls-1, .cls-2, .cls-3, .cls-4 {
        stroke-width: 0px;
      }

      .cls-2 {
        fill: #f80707;
      }

      .cls-3 {
        fill: #fff;
      }

      .cls-4 {
        fill: #e6e6e6;
      }
    </style>
  </defs>
  <g>
    <path class="cls-4" d="M3345.88,749.5c-52.89,0-102.81-22.73-137.58-62.83-35.79-41.27-51.11-95.83-42.01-149.7L3256.92,0H299.47C134.08,0,0,134.08,0,299.47v4191.15c0,165.39,134.08,299.47,299.47,299.47h3257.08c165.39,0,299.47-134.08,299.47-299.47V736.68l-505.47,12.76c-1.56.04-3.12.06-4.67.06Z"/>
    <path class="cls-4" d="M3690.26,437.75l-83.68-96.49L3310.63,0h-15.76l-59.18,350.63-32.5,192.57c-15.16,89.8,55.37,171.13,146.42,168.83l195.23-4.93,311.18-7.86v-41.15l-165.76-220.34Z"/>
  </g>
  <path class="cls-2" d="M0,3511.73h3856.02v961.35c0,198.09-160.82,358.91-358.91,358.91H358.91c-198.09,0-358.91-160.82-358.91-358.91v-961.35h0Z"/>
  <g>
    <path class="cls-3" d="M1005.7,3782.24c53.89-9.58,126.94-16.76,225.13-16.76,107.77,0,185.61,22.75,237.11,65.86,47.9,39.52,79.03,102.99,79.03,178.43s-23.95,138.91-68.26,182.02c-59.87,58.68-150.88,87.42-255.07,87.42-27.54,0-51.49-1.2-71.85-5.99v305.36h-146.1v-796.34ZM1151.8,4157.06c19.16,5.99,41.91,7.19,71.85,7.19,110.17,0,177.23-55.09,177.23-148.49s-62.27-136.52-164.06-136.52c-40.72,0-69.46,3.59-85.02,7.19v270.64Z"/>
    <path class="cls-3" d="M1675.11,3782.24c65.86-9.58,147.29-16.76,234.71-16.76,150.89,0,253.87,31.13,328.12,93.4,79.04,63.47,126.94,160.47,126.94,296.98,0,144.9-49.1,251.48-125.74,320.93-80.23,73.05-208.37,110.17-365.24,110.17-85.02,0-149.69-4.79-198.79-10.78v-793.95ZM1822.4,4467.21c20.36,3.59,51.49,3.59,81.43,3.59,191.6,1.2,305.36-105.38,305.36-310.15,1.2-177.23-101.79-280.22-286.2-280.22-46.7,0-79.03,3.59-100.59,8.38v578.39Z"/>
    <path class="cls-3" d="M2493.01,3771.47h467.03v120.95h-319.73v222.73h296.98v119.75h-296.98v343.68h-147.29v-807.12Z"/>
  </g>
  <path class="cls-1" d="M1333.64,2742.19c-58.08,0-128.03-18.95-202.3-80.31-79.35-65.55-78.85-140.28-71.5-179,8.54-44.91,33.38-88.19,75.96-132.31,31.99-33.15,73.44-66.29,126.7-101.31,83.27-54.75,194.85-113.13,331.65-173.52,34.71-15.32,69.23-29.98,102.82-43.83,25.9-57.18,102.57-228.92,177.12-420.29,9.04-23.19,17.6-45.53,25.73-67.09-76.34-101.16-130.81-201.25-161.94-297.56-38.46-119-42.99-236.02-13.46-347.82,17.86-67.61,49.48-120.05,93.97-155.87,44.28-35.64,99.78-52.1,156.3-46.32,32.71,3.34,64.63,13.73,94.87,30.89,28.74,16.31,54.66,38.02,77.03,64.54,22.52,26.68,40.62,57.29,53.79,90.95,13.71,35.03,21.74,72.6,23.88,111.67,3.95,72.17-13.83,174.6-54.37,313.17-17.79,60.82-40,128.6-66.39,202.66,97.98,113.42,213.71,216.32,313.56,301.49,2.17-.38,4.36-.75,6.54-1.12,114.73-19.49,212.47-27.13,290.51-22.71,51.89,2.93,95.13,10.95,132.21,24.52,49.58,18.14,87.17,46.26,111.74,83.58,28.69,43.6,39.31,91.86,30.7,139.56-7.92,43.88-31.49,83.5-68.18,114.6-46.77,39.64-110.98,61.39-179.37,61.39-9.2,0-18.46-.39-27.77-1.19-84.62-7.23-167.16-46.04-238.7-112.24-28.45-26.33-65.5-57.71-108.32-93.87-136.72,28.44-249.81,62.95-258.52,65.64-9.51,3.12-130.57,43.08-280.75,102.59-18.41,51.35-46.54,123.2-83.32,198.09-41.29,84.08-85.2,154.94-130.5,210.61-62.73,77.1-130.02,127.02-200,148.39-22.68,6.92-49.6,12.02-79.72,12.02ZM1236.85,2514.56c1.34,1.76,3.98,4.77,8.89,8.83,55.54,45.88,92.29,41.94,115.1,34.99,34.55-10.53,73.44-41.34,112.46-89.1,36.6-44.79,73.02-103.72,108.24-175.13,3.24-6.58,6.42-13.14,9.51-19.66-97.03,45.62-176.55,89.09-237,129.58-40.65,27.23-71.97,52.65-93.08,75.55-17.39,18.86-22.63,30.5-24.13,34.94ZM2599.81,1969.67c93.77,84.71,178.17,66.48,204.62,44.05,5.63-4.77,7.38-8.53,7.55-9.47.07-.37-.36-3.4-3.98-8.91-4.09-6.22-30.65-23.27-103.43-27.47-30.58-1.77-65.59-1.16-104.76,1.8ZM2032.48,1699.75c-34.79,88.42-69.58,171.86-99.28,241.18,69.76-25.12,115.56-40.09,119.68-41.43l1.09-.35c4.09-1.28,60.92-18.88,143.83-39.77-54.69-49.14-111.12-102.57-165.33-159.62ZM1952.81,875.48c-31.53,0-47.75,43.15-54.72,69.55-34.79,131.72,2.53,263.86,76.02,388.78,64.06-198.45,72.98-289.11,70.8-328.97-4.52-82.42-55.46-125.81-88.46-129.18-1.23-.13-2.44-.19-3.63-.19Z"/>
</svg>